<?xml version="1.0" encoding="UTF-8" standalone="no"?>
<!DOCTYPE svg PUBLIC "-//W3C//DTD SVG 1.1//EN"
 "http://www.w3.org/Graphics/SVG/1.1/DTD/svg11.dtd">
<!-- Generated by graphviz version 2.49.1 (20210923.0004)
 -->
<!-- Title: Tree Pages: 1 -->
<svg width="682pt" height="269pt"
 viewBox="0.00 0.00 682.00 269.00" xmlns="http://www.w3.org/2000/svg" xmlns:xlink="http://www.w3.org/1999/xlink">
<g id="graph0" class="graph" transform="scale(1 1) rotate(0) translate(4 265)">
<title>Tree</title>
<polygon fill="white" stroke="transparent" points="-4,4 -4,-265 678,-265 678,4 -4,4"/>
<!-- 0 -->
<g id="node1" class="node">
<title>0</title>
<path fill="#f6d6be" stroke="black" d="M402,-261C402,-261 271,-261 271,-261 265,-261 259,-255 259,-249 259,-249 259,-205 259,-205 259,-199 265,-193 271,-193 271,-193 402,-193 402,-193 408,-193 414,-199 414,-205 414,-205 414,-249 414,-249 414,-255 408,-261 402,-261"/>
<text text-anchor="middle" x="336.5" y="-245.8" font-family="Helvetica,sans-Serif" font-size="14.00">x1 &lt;= 0.197</text>
<text text-anchor="middle" x="336.5" y="-230.8" font-family="Helvetica,sans-Serif" font-size="14.00">squared_error = 0.098</text>
<text text-anchor="middle" x="336.5" y="-215.8" font-family="Helvetica,sans-Serif" font-size="14.00">samples = 200</text>
<text text-anchor="middle" x="336.5" y="-200.8" font-family="Helvetica,sans-Serif" font-size="14.00">value = 0.354</text>
</g>
<!-- 1 -->
<g id="node2" class="node">
<title>1</title>
<path fill="#eb9d65" stroke="black" d="M316,-157C316,-157 185,-157 185,-157 179,-157 173,-151 173,-145 173,-145 173,-101 173,-101 173,-95 179,-89 185,-89 185,-89 316,-89 316,-89 322,-89 328,-95 328,-101 328,-101 328,-145 328,-145 328,-151 322,-157 316,-157"/>
<text text-anchor="middle" x="250.5" y="-141.8" font-family="Helvetica,sans-Serif" font-size="14.00">x1 &lt;= 0.092</text>
<text text-anchor="middle" x="250.5" y="-126.8" font-family="Helvetica,sans-Serif" font-size="14.00">squared_error = 0.038</text>
<text text-anchor="middle" x="250.5" y="-111.8" font-family="Helvetica,sans-Serif" font-size="14.00">samples = 44</text>
<text text-anchor="middle" x="250.5" y="-96.8" font-family="Helvetica,sans-Serif" font-size="14.00">value = 0.689</text>
</g>
<!-- 0&#45;&gt;1 -->
<g id="edge1" class="edge">
<title>0&#45;&gt;1</title>
<path fill="none" stroke="black" d="M308.58,-192.88C301.07,-183.98 292.86,-174.24 285.03,-164.96"/>
<polygon fill="black" stroke="black" points="287.7,-162.69 278.58,-157.3 282.35,-167.2 287.7,-162.69"/>
<text text-anchor="middle" x="276.46" y="-178.51" font-family="Helvetica,sans-Serif" font-size="14.00">True</text>
</g>
<!-- 4 -->
<g id="node5" class="node">
<title>4</title>
<path fill="#fae6d7" stroke="black" d="M489,-157C489,-157 358,-157 358,-157 352,-157 346,-151 346,-145 346,-145 346,-101 346,-101 346,-95 352,-89 358,-89 358,-89 489,-89 489,-89 495,-89 501,-95 501,-101 501,-101 501,-145 501,-145 501,-151 495,-157 489,-157"/>
<text text-anchor="middle" x="423.5" y="-141.8" font-family="Helvetica,sans-Serif" font-size="14.00">x1 &lt;= 0.772</text>
<text text-anchor="middle" x="423.5" y="-126.8" font-family="Helvetica,sans-Serif" font-size="14.00">squared_error = 0.074</text>
<text text-anchor="middle" x="423.5" y="-111.8" font-family="Helvetica,sans-Serif" font-size="14.00">samples = 156</text>
<text text-anchor="middle" x="423.5" y="-96.8" font-family="Helvetica,sans-Serif" font-size="14.00">value = 0.259</text>
</g>
<!-- 0&#45;&gt;4 -->
<g id="edge4" class="edge">
<title>0&#45;&gt;4</title>
<path fill="none" stroke="black" d="M364.75,-192.88C372.34,-183.98 380.65,-174.24 388.57,-164.96"/>
<polygon fill="black" stroke="black" points="391.27,-167.18 395.1,-157.3 385.95,-162.64 391.27,-167.18"/>
<text text-anchor="middle" x="397.08" y="-178.52" font-family="Helvetica,sans-Serif" font-size="14.00">False</text>
</g>
<!-- 2 -->
<g id="node3" class="node">
<title>2</title>
<path fill="#e58139" stroke="black" d="M143,-53C143,-53 12,-53 12,-53 6,-53 0,-47 0,-41 0,-41 0,-12 0,-12 0,-6 6,0 12,0 12,0 143,0 143,0 149,0 155,-6 155,-12 155,-12 155,-41 155,-41 155,-47 149,-53 143,-53"/>
<text text-anchor="middle" x="77.5" y="-37.8" font-family="Helvetica,sans-Serif" font-size="14.00">squared_error = 0.018</text>
<text text-anchor="middle" x="77.5" y="-22.8" font-family="Helvetica,sans-Serif" font-size="14.00">samples = 20</text>
<text text-anchor="middle" x="77.5" y="-7.8" font-family="Helvetica,sans-Serif" font-size="14.00">value = 0.854</text>
</g>
<!-- 1&#45;&gt;2 -->
<g id="edge2" class="edge">
<title>1&#45;&gt;2</title>
<path fill="none" stroke="black" d="M189.99,-88.95C171.66,-78.93 151.6,-67.98 133.57,-58.13"/>
<polygon fill="black" stroke="black" points="134.8,-54.81 124.34,-53.09 131.44,-60.95 134.8,-54.81"/>
</g>
<!-- 3 -->
<g id="node4" class="node">
<title>3</title>
<path fill="#f0b489" stroke="black" d="M316,-53C316,-53 185,-53 185,-53 179,-53 173,-47 173,-41 173,-41 173,-12 173,-12 173,-6 179,0 185,0 185,0 316,0 316,0 322,0 328,-6 328,-12 328,-12 328,-41 328,-41 328,-47 322,-53 316,-53"/>
<text text-anchor="middle" x="250.5" y="-37.8" font-family="Helvetica,sans-Serif" font-size="14.00">squared_error = 0.013</text>
<text text-anchor="middle" x="250.5" y="-22.8" font-family="Helvetica,sans-Serif" font-size="14.00">samples = 24</text>
<text text-anchor="middle" x="250.5" y="-7.8" font-family="Helvetica,sans-Serif" font-size="14.00">value = 0.552</text>
</g>
<!-- 1&#45;&gt;3 -->
<g id="edge3" class="edge">
<title>1&#45;&gt;3</title>
<path fill="none" stroke="black" d="M250.5,-88.95C250.5,-80.72 250.5,-71.85 250.5,-63.48"/>
<polygon fill="black" stroke="black" points="254,-63.24 250.5,-53.24 247,-63.24 254,-63.24"/>
</g>
<!-- 5 -->
<g id="node6" class="node">
<title>5</title>
<path fill="#ffffff" stroke="black" d="M489,-53C489,-53 358,-53 358,-53 352,-53 346,-47 346,-41 346,-41 346,-12 346,-12 346,-6 352,0 358,0 358,0 489,0 489,0 495,0 501,-6 501,-12 501,-12 501,-41 501,-41 501,-47 495,-53 489,-53"/>
<text text-anchor="middle" x="423.5" y="-37.8" font-family="Helvetica,sans-Serif" font-size="14.00">squared_error = 0.015</text>
<text text-anchor="middle" x="423.5" y="-22.8" font-family="Helvetica,sans-Serif" font-size="14.00">samples = 110</text>
<text text-anchor="middle" x="423.5" y="-7.8" font-family="Helvetica,sans-Serif" font-size="14.00">value = 0.111</text>
</g>
<!-- 4&#45;&gt;5 -->
<g id="edge5" class="edge">
<title>4&#45;&gt;5</title>
<path fill="none" stroke="black" d="M423.5,-88.95C423.5,-80.72 423.5,-71.85 423.5,-63.48"/>
<polygon fill="black" stroke="black" points="427,-63.24 423.5,-53.24 420,-63.24 427,-63.24"/>
</g>
<!-- 6 -->
<g id="node7" class="node">
<title>6</title>
<path fill="#edaa79" stroke="black" d="M662,-53C662,-53 531,-53 531,-53 525,-53 519,-47 519,-41 519,-41 519,-12 519,-12 519,-6 525,0 531,0 531,0 662,0 662,0 668,0 674,-6 674,-12 674,-12 674,-41 674,-41 674,-47 668,-53 662,-53"/>
<text text-anchor="middle" x="596.5" y="-37.8" font-family="Helvetica,sans-Serif" font-size="14.00">squared_error = 0.036</text>
<text text-anchor="middle" x="596.5" y="-22.8" font-family="Helvetica,sans-Serif" font-size="14.00">samples = 46</text>
<text text-anchor="middle" x="596.5" y="-7.8" font-family="Helvetica,sans-Serif" font-size="14.00">value = 0.615</text>
</g>
<!-- 4&#45;&gt;6 -->
<g id="edge6" class="edge">
<title>4&#45;&gt;6</title>
<path fill="none" stroke="black" d="M484.01,-88.95C502.34,-78.93 522.4,-67.98 540.43,-58.13"/>
<polygon fill="black" stroke="black" points="542.56,-60.95 549.66,-53.09 539.2,-54.81 542.56,-60.95"/>
</g>
</g>
</svg>
