<?xml version="1.0" encoding="UTF-8" standalone="no"?>
<!DOCTYPE svg PUBLIC "-//W3C//DTD SVG 1.1//EN"
 "http://www.w3.org/Graphics/SVG/1.1/DTD/svg11.dtd">
<!-- Generated by graphviz version 2.49.0 (0)
 -->
<!-- Title: Tree Pages: 1 -->
<svg width="472pt" height="269pt"
 viewBox="0.00 0.00 472.00 269.00" xmlns="http://www.w3.org/2000/svg" xmlns:xlink="http://www.w3.org/1999/xlink">
<g id="graph0" class="graph" transform="scale(1 1) rotate(0) translate(4 265)">
<title>Tree</title>
<polygon fill="white" stroke="transparent" points="-4,4 -4,-265 468,-265 468,4 -4,4"/>
<!-- 0 -->
<g id="node1" class="node">
<title>0</title>
<path fill="#f6d6be" stroke="black" d="M271.5,-261C271.5,-261 187.5,-261 187.5,-261 181.5,-261 175.5,-255 175.5,-249 175.5,-249 175.5,-205 175.5,-205 175.5,-199 181.5,-193 187.5,-193 187.5,-193 271.5,-193 271.5,-193 277.5,-193 283.5,-199 283.5,-205 283.5,-205 283.5,-249 283.5,-249 283.5,-255 277.5,-261 271.5,-261"/>
<text text-anchor="middle" x="229.5" y="-245.8" font-family="Helvetica,sans-Serif" font-size="14.00">x1 &lt;= 0.197</text>
<text text-anchor="middle" x="229.5" y="-230.8" font-family="Helvetica,sans-Serif" font-size="14.00">mse = 0.098</text>
<text text-anchor="middle" x="229.5" y="-215.8" font-family="Helvetica,sans-Serif" font-size="14.00">samples = 200</text>
<text text-anchor="middle" x="229.5" y="-200.8" font-family="Helvetica,sans-Serif" font-size="14.00">value = 0.354</text>
</g>
<!-- 1 -->
<g id="node2" class="node">
<title>1</title>
<path fill="#eb9d65" stroke="black" d="M207,-157C207,-157 130,-157 130,-157 124,-157 118,-151 118,-145 118,-145 118,-101 118,-101 118,-95 124,-89 130,-89 130,-89 207,-89 207,-89 213,-89 219,-95 219,-101 219,-101 219,-145 219,-145 219,-151 213,-157 207,-157"/>
<text text-anchor="middle" x="168.5" y="-141.8" font-family="Helvetica,sans-Serif" font-size="14.00">x1 &lt;= 0.092</text>
<text text-anchor="middle" x="168.5" y="-126.8" font-family="Helvetica,sans-Serif" font-size="14.00">mse = 0.038</text>
<text text-anchor="middle" x="168.5" y="-111.8" font-family="Helvetica,sans-Serif" font-size="14.00">samples = 44</text>
<text text-anchor="middle" x="168.5" y="-96.8" font-family="Helvetica,sans-Serif" font-size="14.00">value = 0.689</text>
</g>
<!-- 0&#45;&gt;1 -->
<g id="edge1" class="edge">
<title>0&#45;&gt;1</title>
<path fill="none" stroke="black" d="M209.7,-192.88C204.58,-184.33 199.01,-175.01 193.66,-166.07"/>
<polygon fill="black" stroke="black" points="196.55,-164.09 188.41,-157.3 190.54,-167.68 196.55,-164.09"/>
<text text-anchor="middle" x="182.32" y="-177.84" font-family="Helvetica,sans-Serif" font-size="14.00">True</text>
</g>
<!-- 4 -->
<g id="node5" class="node">
<title>4</title>
<path fill="#fae6d7" stroke="black" d="M333.5,-157C333.5,-157 249.5,-157 249.5,-157 243.5,-157 237.5,-151 237.5,-145 237.5,-145 237.5,-101 237.5,-101 237.5,-95 243.5,-89 249.5,-89 249.5,-89 333.5,-89 333.5,-89 339.5,-89 345.5,-95 345.5,-101 345.5,-101 345.5,-145 345.5,-145 345.5,-151 339.5,-157 333.5,-157"/>
<text text-anchor="middle" x="291.5" y="-141.8" font-family="Helvetica,sans-Serif" font-size="14.00">x1 &lt;= 0.772</text>
<text text-anchor="middle" x="291.5" y="-126.8" font-family="Helvetica,sans-Serif" font-size="14.00">mse = 0.074</text>
<text text-anchor="middle" x="291.5" y="-111.8" font-family="Helvetica,sans-Serif" font-size="14.00">samples = 156</text>
<text text-anchor="middle" x="291.5" y="-96.8" font-family="Helvetica,sans-Serif" font-size="14.00">value = 0.259</text>
</g>
<!-- 0&#45;&gt;4 -->
<g id="edge4" class="edge">
<title>0&#45;&gt;4</title>
<path fill="none" stroke="black" d="M249.63,-192.88C254.83,-184.33 260.49,-175.01 265.93,-166.07"/>
<polygon fill="black" stroke="black" points="269.06,-167.66 271.26,-157.3 263.07,-164.03 269.06,-167.66"/>
<text text-anchor="middle" x="277.18" y="-177.89" font-family="Helvetica,sans-Serif" font-size="14.00">False</text>
</g>
<!-- 2 -->
<g id="node3" class="node">
<title>2</title>
<path fill="#e58139" stroke="black" d="M89,-53C89,-53 12,-53 12,-53 6,-53 0,-47 0,-41 0,-41 0,-12 0,-12 0,-6 6,0 12,0 12,0 89,0 89,0 95,0 101,-6 101,-12 101,-12 101,-41 101,-41 101,-47 95,-53 89,-53"/>
<text text-anchor="middle" x="50.5" y="-37.8" font-family="Helvetica,sans-Serif" font-size="14.00">mse = 0.018</text>
<text text-anchor="middle" x="50.5" y="-22.8" font-family="Helvetica,sans-Serif" font-size="14.00">samples = 20</text>
<text text-anchor="middle" x="50.5" y="-7.8" font-family="Helvetica,sans-Serif" font-size="14.00">value = 0.854</text>
</g>
<!-- 1&#45;&gt;2 -->
<g id="edge2" class="edge">
<title>1&#45;&gt;2</title>
<path fill="none" stroke="black" d="M127.23,-88.95C115.35,-79.43 102.41,-69.07 90.6,-59.62"/>
<polygon fill="black" stroke="black" points="92.63,-56.76 82.64,-53.24 88.25,-62.22 92.63,-56.76"/>
</g>
<!-- 3 -->
<g id="node4" class="node">
<title>3</title>
<path fill="#f0b489" stroke="black" d="M208,-53C208,-53 131,-53 131,-53 125,-53 119,-47 119,-41 119,-41 119,-12 119,-12 119,-6 125,0 131,0 131,0 208,0 208,0 214,0 220,-6 220,-12 220,-12 220,-41 220,-41 220,-47 214,-53 208,-53"/>
<text text-anchor="middle" x="169.5" y="-37.8" font-family="Helvetica,sans-Serif" font-size="14.00">mse = 0.013</text>
<text text-anchor="middle" x="169.5" y="-22.8" font-family="Helvetica,sans-Serif" font-size="14.00">samples = 24</text>
<text text-anchor="middle" x="169.5" y="-7.8" font-family="Helvetica,sans-Serif" font-size="14.00">value = 0.552</text>
</g>
<!-- 1&#45;&gt;3 -->
<g id="edge3" class="edge">
<title>1&#45;&gt;3</title>
<path fill="none" stroke="black" d="M168.85,-88.95C168.94,-80.72 169.03,-71.85 169.12,-63.48"/>
<polygon fill="black" stroke="black" points="172.62,-63.27 169.23,-53.24 165.62,-63.2 172.62,-63.27"/>
</g>
<!-- 5 -->
<g id="node6" class="node">
<title>5</title>
<path fill="#ffffff" stroke="black" d="M333,-53C333,-53 250,-53 250,-53 244,-53 238,-47 238,-41 238,-41 238,-12 238,-12 238,-6 244,0 250,0 250,0 333,0 333,0 339,0 345,-6 345,-12 345,-12 345,-41 345,-41 345,-47 339,-53 333,-53"/>
<text text-anchor="middle" x="291.5" y="-37.8" font-family="Helvetica,sans-Serif" font-size="14.00">mse = 0.015</text>
<text text-anchor="middle" x="291.5" y="-22.8" font-family="Helvetica,sans-Serif" font-size="14.00">samples = 110</text>
<text text-anchor="middle" x="291.5" y="-7.8" font-family="Helvetica,sans-Serif" font-size="14.00">value = 0.111</text>
</g>
<!-- 4&#45;&gt;5 -->
<g id="edge5" class="edge">
<title>4&#45;&gt;5</title>
<path fill="none" stroke="black" d="M291.5,-88.95C291.5,-80.72 291.5,-71.85 291.5,-63.48"/>
<polygon fill="black" stroke="black" points="295,-63.24 291.5,-53.24 288,-63.24 295,-63.24"/>
</g>
<!-- 6 -->
<g id="node7" class="node">
<title>6</title>
<path fill="#edaa79" stroke="black" d="M452,-53C452,-53 375,-53 375,-53 369,-53 363,-47 363,-41 363,-41 363,-12 363,-12 363,-6 369,0 375,0 375,0 452,0 452,0 458,0 464,-6 464,-12 464,-12 464,-41 464,-41 464,-47 458,-53 452,-53"/>
<text text-anchor="middle" x="413.5" y="-37.8" font-family="Helvetica,sans-Serif" font-size="14.00">mse = 0.036</text>
<text text-anchor="middle" x="413.5" y="-22.8" font-family="Helvetica,sans-Serif" font-size="14.00">samples = 46</text>
<text text-anchor="middle" x="413.5" y="-7.8" font-family="Helvetica,sans-Serif" font-size="14.00">value = 0.615</text>
</g>
<!-- 4&#45;&gt;6 -->
<g id="edge6" class="edge">
<title>4&#45;&gt;6</title>
<path fill="none" stroke="black" d="M334.17,-88.95C346.45,-79.43 359.83,-69.07 372.04,-59.62"/>
<polygon fill="black" stroke="black" points="374.51,-62.13 380.27,-53.24 370.22,-56.59 374.51,-62.13"/>
</g>
</g>
</svg>
